HIERARCHY
ROOT mixamorig:Hips
{
	OFFSET -0.000008 104.274872 1.554316
	CHANNELS 6 Xposition Yposition Zposition Xrotation Yrotation Zrotation
	JOINT mixamorig:Spine
	{
		OFFSET -0.000005 10.181595 0.131519
		CHANNELS 6 Xposition Yposition Zposition Xrotation Yrotation Zrotation
		JOINT mixamorig:Spine1
		{
			OFFSET -0.000000 9.893959 -1.470707
			CHANNELS 6 Xposition Yposition Zposition Xrotation Yrotation Zrotation
			JOINT mixamorig:Spine2
			{
				OFFSET -0.000000 9.220757 -1.370641
				CHANNELS 6 Xposition Yposition Zposition Xrotation Yrotation Zrotation
				JOINT mixamorig:Neck
				{
					OFFSET 0.000001 16.740417 -2.049036
					CHANNELS 6 Xposition Yposition Zposition Xrotation Yrotation Zrotation
					JOINT mixamorig:Head
					{
						OFFSET 0.000000 9.617874 1.685006
						CHANNELS 6 Xposition Yposition Zposition Xrotation Yrotation Zrotation
						JOINT mixamorig:HeadTop_End
						{
							OFFSET 0.000002 22.037354 7.501101
							CHANNELS 6 Xposition Yposition Zposition Xrotation Yrotation Zrotation
							End Site
							{
								OFFSET 0.000168 2310.654297 -282.823242
							}
						}
					}
				}
				JOINT mixamorig:RightShoulder
				{
					OFFSET -4.569970 11.014908 -2.160885
					CHANNELS 6 Xposition Yposition Zposition Xrotation Yrotation Zrotation
					JOINT mixamorig:RightArm
					{
						OFFSET -10.592851 -0.524811 -2.232101
						CHANNELS 6 Xposition Yposition Zposition Xrotation Yrotation Zrotation
						JOINT mixamorig:RightForeArm
						{
							OFFSET -27.841511 0.000031 -0.000004
							CHANNELS 6 Xposition Yposition Zposition Xrotation Yrotation Zrotation
							JOINT mixamorig:RightHand
							{
								OFFSET -28.328831 -0.000015 0.000015
								CHANNELS 6 Xposition Yposition Zposition Xrotation Yrotation Zrotation
								JOINT mixamorig:RightHandThumb1
								{
									OFFSET -2.464806 -1.573990 2.681852
									CHANNELS 6 Xposition Yposition Zposition Xrotation Yrotation Zrotation
									JOINT mixamorig:RightHandThumb2
									{
										OFFSET -3.215179 -1.872803 1.924282
										CHANNELS 6 Xposition Yposition Zposition Xrotation Yrotation Zrotation
										JOINT mixamorig:RightHandThumb3
										{
											OFFSET -2.654831 -1.527969 1.512609
											CHANNELS 6 Xposition Yposition Zposition Xrotation Yrotation Zrotation
											JOINT mixamorig:RightHandThumb4
											{
												OFFSET -2.018814 -1.152008 1.108052
												CHANNELS 6 Xposition Yposition Zposition Xrotation Yrotation Zrotation
												End Site
												{
													OFFSET -188.809540 -114.533607 132.431396
												}
											}
										}
									}
								}
								JOINT mixamorig:RightHandIndex1
								{
									OFFSET -9.108284 -0.517868 2.259835
									CHANNELS 6 Xposition Yposition Zposition Xrotation Yrotation Zrotation
									JOINT mixamorig:RightHandIndex2
									{
										OFFSET -3.699989 0.000000 0.001215
										CHANNELS 6 Xposition Yposition Zposition Xrotation Yrotation Zrotation
										JOINT mixamorig:RightHandIndex3
										{
											OFFSET -2.850006 0.000031 -0.000522
											CHANNELS 6 Xposition Yposition Zposition Xrotation Yrotation Zrotation
											JOINT mixamorig:RightHandIndex4
											{
												OFFSET -2.772186 -0.000015 -0.000020
												CHANNELS 6 Xposition Yposition Zposition Xrotation Yrotation Zrotation
												End Site
												{
													OFFSET -277.218445 0.000000 -0.050231
												}
											}
										}
									}
								}
								JOINT mixamorig:RightHandMiddle1
								{
									OFFSET -9.532516 -0.000031 -0.000023
									CHANNELS 6 Xposition Yposition Zposition Xrotation Yrotation Zrotation
									JOINT mixamorig:RightHandMiddle2
									{
										OFFSET -3.700005 -0.000015 0.003713
										CHANNELS 6 Xposition Yposition Zposition Xrotation Yrotation Zrotation
										JOINT mixamorig:RightHandMiddle3
										{
											OFFSET -2.949974 0.000015 -0.002054
											CHANNELS 6 Xposition Yposition Zposition Xrotation Yrotation Zrotation
											JOINT mixamorig:RightHandMiddle4
											{
												OFFSET -2.946640 0.000000 -0.000156
												CHANNELS 6 Xposition Yposition Zposition Xrotation Yrotation Zrotation
												End Site
												{
													OFFSET -294.664337 0.000000 -0.113670
												}
											}
										}
									}
								}
								JOINT mixamorig:RightHandRing1
								{
									OFFSET -9.103600 -0.043076 -1.865134
									CHANNELS 6 Xposition Yposition Zposition Xrotation Yrotation Zrotation
									JOINT mixamorig:RightHandRing2
									{
										OFFSET -3.379288 0.000000 -0.001055
										CHANNELS 6 Xposition Yposition Zposition Xrotation Yrotation Zrotation
										JOINT mixamorig:RightHandRing3
										{
											OFFSET -2.889687 -0.000015 0.000379
											CHANNELS 6 Xposition Yposition Zposition Xrotation Yrotation Zrotation
											JOINT mixamorig:RightHandRing4
											{
												OFFSET -2.638809 -0.000015 0.000941
												CHANNELS 6 Xposition Yposition Zposition Xrotation Yrotation Zrotation
												End Site
												{
													OFFSET -263.880371 0.000000 0.516020
												}
											}
										}
									}
								}
								JOINT mixamorig:RightHandPinky1
								{
									OFFSET -8.076683 -0.486710 -3.806280
									CHANNELS 6 Xposition Yposition Zposition Xrotation Yrotation Zrotation
									JOINT mixamorig:RightHandPinky2
									{
										OFFSET -3.600014 -0.000015 -0.003747
										CHANNELS 6 Xposition Yposition Zposition Xrotation Yrotation Zrotation
										JOINT mixamorig:RightHandPinky3
										{
											OFFSET -2.099983 0.000000 -0.005739
											CHANNELS 6 Xposition Yposition Zposition Xrotation Yrotation Zrotation
											JOINT mixamorig:RightHandPinky4
											{
												OFFSET -2.115768 -0.000031 -0.003680
												CHANNELS 6 Xposition Yposition Zposition Xrotation Yrotation Zrotation
												End Site
												{
													OFFSET -211.577087 0.000000 -0.350686
												}
											}
										}
									}
								}
							}
						}
					}
				}
				JOINT mixamorig:LeftShoulder
				{
					OFFSET 4.570447 11.014725 -2.160855
					CHANNELS 6 Xposition Yposition Zposition Xrotation Yrotation Zrotation
					JOINT mixamorig:LeftArm
					{
						OFFSET 10.592371 -0.524597 -2.232119
						CHANNELS 6 Xposition Yposition Zposition Xrotation Yrotation Zrotation
						JOINT mixamorig:LeftForeArm
						{
							OFFSET 27.841532 -0.000031 0.000026
							CHANNELS 6 Xposition Yposition Zposition Xrotation Yrotation Zrotation
							JOINT mixamorig:LeftHand
							{
								OFFSET 28.328846 -0.000061 0.000022
								CHANNELS 6 Xposition Yposition Zposition Xrotation Yrotation Zrotation
								JOINT mixamorig:LeftHandThumb1
								{
									OFFSET 2.466141 -1.576172 2.681732
									CHANNELS 6 Xposition Yposition Zposition Xrotation Yrotation Zrotation
									JOINT mixamorig:LeftHandThumb2
									{
										OFFSET 3.217812 -1.872070 1.916482
										CHANNELS 6 Xposition Yposition Zposition Xrotation Yrotation Zrotation
										JOINT mixamorig:LeftHandThumb3
										{
											OFFSET 2.656029 -1.528778 1.514513
											CHANNELS 6 Xposition Yposition Zposition Xrotation Yrotation Zrotation
											JOINT mixamorig:LeftHandThumb4
											{
												OFFSET 2.020889 -1.154053 1.115139
												CHANNELS 6 Xposition Yposition Zposition Xrotation Yrotation Zrotation
												End Site
												{
													OFFSET 190.885437 -115.081749 130.048782
												}
											}
										}
									}
								}
								JOINT mixamorig:LeftHandIndex1
								{
									OFFSET 9.109314 -0.518021 2.259871
									CHANNELS 6 Xposition Yposition Zposition Xrotation Yrotation Zrotation
									JOINT mixamorig:LeftHandIndex2
									{
										OFFSET 3.699989 0.000000 -0.000322
										CHANNELS 6 Xposition Yposition Zposition Xrotation Yrotation Zrotation
										JOINT mixamorig:LeftHandIndex3
										{
											OFFSET 2.850006 0.000000 0.000352
											CHANNELS 6 Xposition Yposition Zposition Xrotation Yrotation Zrotation
											JOINT mixamorig:LeftHandIndex4
											{
												OFFSET 2.774864 -0.000031 -0.000027
												CHANNELS 6 Xposition Yposition Zposition Xrotation Yrotation Zrotation
												End Site
												{
													OFFSET 277.486267 0.000000 -0.009857
												}
											}
										}
									}
								}
								JOINT mixamorig:LeftHandMiddle1
								{
									OFFSET 9.533394 0.000061 0.000044
									CHANNELS 6 Xposition Yposition Zposition Xrotation Yrotation Zrotation
									JOINT mixamorig:LeftHandMiddle2
									{
										OFFSET 3.699989 -0.000015 -0.000231
										CHANNELS 6 Xposition Yposition Zposition Xrotation Yrotation Zrotation
										JOINT mixamorig:LeftHandMiddle3
										{
											OFFSET 2.949997 -0.000015 -0.000059
											CHANNELS 6 Xposition Yposition Zposition Xrotation Yrotation Zrotation
											JOINT mixamorig:LeftHandMiddle4
											{
												OFFSET 2.952896 0.000031 0.000063
												CHANNELS 6 Xposition Yposition Zposition Xrotation Yrotation Zrotation
												End Site
												{
													OFFSET 295.289337 0.000000 0.022810
												}
											}
										}
									}
								}
								JOINT mixamorig:LeftHandRing1
								{
									OFFSET 9.104523 -0.042999 -1.865074
									CHANNELS 6 Xposition Yposition Zposition Xrotation Yrotation Zrotation
									JOINT mixamorig:LeftHandRing2
									{
										OFFSET 3.150009 -0.000031 0.000043
										CHANNELS 6 Xposition Yposition Zposition Xrotation Yrotation Zrotation
										JOINT mixamorig:LeftHandRing3
										{
											OFFSET 2.949982 -0.000015 0.000040
											CHANNELS 6 Xposition Yposition Zposition Xrotation Yrotation Zrotation
											JOINT mixamorig:LeftHandRing4
											{
												OFFSET 2.644348 0.000000 0.000057
												CHANNELS 6 Xposition Yposition Zposition Xrotation Yrotation Zrotation
												End Site
												{
													OFFSET 264.434631 0.000000 0.012105
												}
											}
										}
									}
								}
								JOINT mixamorig:LeftHandPinky1
								{
									OFFSET 8.077789 -0.486847 -3.806259
									CHANNELS 6 Xposition Yposition Zposition Xrotation Yrotation Zrotation
									JOINT mixamorig:LeftHandPinky2
									{
										OFFSET 3.599953 0.000031 0.014727
										CHANNELS 6 Xposition Yposition Zposition Xrotation Yrotation Zrotation
										JOINT mixamorig:LeftHandPinky3
										{
											OFFSET 2.100021 0.000015 0.007705
											CHANNELS 6 Xposition Yposition Zposition Xrotation Yrotation Zrotation
											JOINT mixamorig:LeftHandPinky4
											{
												OFFSET 2.125504 0.000031 0.007517
												CHANNELS 6 Xposition Yposition Zposition Xrotation Yrotation Zrotation
												End Site
												{
													OFFSET 212.550781 0.000000 0.625752
												}
											}
										}
									}
								}
							}
						}
					}
				}
			}
		}
	}
	JOINT mixamorig:RightUpLeg
	{
		OFFSET -8.207787 -6.751648 -1.599560
		CHANNELS 6 Xposition Yposition Zposition Xrotation Yrotation Zrotation
		JOINT mixamorig:RightLeg
		{
			OFFSET -0.000002 -44.370117 0.345942
			CHANNELS 6 Xposition Yposition Zposition Xrotation Yrotation Zrotation
			JOINT mixamorig:RightFoot
			{
				OFFSET 0.000003 -44.423679 -3.043532
				CHANNELS 6 Xposition Yposition Zposition Xrotation Yrotation Zrotation
				JOINT mixamorig:RightToeBase
				{
					OFFSET -0.000002 -8.728671 10.710558
					CHANNELS 6 Xposition Yposition Zposition Xrotation Yrotation Zrotation
					JOINT mixamorig:RightToe_End
					{
						OFFSET -0.000001 -0.000679 9.278119
						CHANNELS 6 Xposition Yposition Zposition Xrotation Yrotation Zrotation
						End Site
						{
							OFFSET 0.000000 -0.067690 927.812134
						}
					}
				}
			}
		}
	}
	JOINT mixamorig:LeftUpLeg
	{
		OFFSET 8.207793 -6.751686 -1.599556
		CHANNELS 6 Xposition Yposition Zposition Xrotation Yrotation Zrotation
		JOINT mixamorig:LeftLeg
		{
			OFFSET -0.000004 -44.370014 0.346954
			CHANNELS 6 Xposition Yposition Zposition Xrotation Yrotation Zrotation
			JOINT mixamorig:LeftFoot
			{
				OFFSET -0.000001 -44.423672 -3.044401
				CHANNELS 6 Xposition Yposition Zposition Xrotation Yrotation Zrotation
				JOINT mixamorig:LeftToeBase
				{
					OFFSET -0.000002 -8.728669 10.710558
					CHANNELS 6 Xposition Yposition Zposition Xrotation Yrotation Zrotation
					JOINT mixamorig:LeftToe_End
					{
						OFFSET -0.000003 -0.000679 9.278133
						CHANNELS 6 Xposition Yposition Zposition Xrotation Yrotation Zrotation
						End Site
						{
							OFFSET 0.000000 -0.068021 927.813477
						}
					}
				}
			}
		}
	}
}
MOTION
Frames: 3
Frame Time: 0.033333
0.000006 104.270477 1.554256 0.000010 0.000003 -0.000113 -0.000005 10.181587 0.131522 0.000001 -0.000003 0.000084 -0.000000 9.893967 -1.470711 0.000001 0.000000 -0.000000 -0.000000 9.220802 -1.370642 0.000000 -0.000000 -0.000000 0.000001 16.740433 -2.049030 0.000000 -0.000000 -0.000000 0.000000 9.617859 1.685014 0.000000 0.000000 0.000000 0.000002 22.037384 7.501101 0.000000 -0.000000 0.000000 -4.569968 11.014880 -2.160881 0.000008 0.000001 -0.000038 -10.592872 -0.524790 -2.231874 76.061178 34.608630 -27.389441 -27.841528 -0.000003 0.000560 -46.579906 107.271830 60.623509 -28.328812 0.000019 0.000034 -0.000319 -0.000043 0.000003 -2.464422 -1.573741 2.682289 -51.352231 -167.666664 -19.446404 -3.215269 -1.872570 1.924618 149.389706 32.235167 14.226152 -2.654948 -1.527863 1.513055 147.093315 27.728340 -28.424471 -2.018841 -1.151999 1.108066 -0.000004 -0.000002 -0.000001 -9.108388 -0.517566 2.260171 110.648812 15.983887 -23.011005 -3.700070 0.000298 0.001564 105.227609 14.658289 -19.076881 -2.850096 0.000362 -0.000208 104.751135 12.054203 -15.598544 -2.772170 -0.000016 -0.000017 0.000000 -0.000000 -0.000001 -9.532576 0.000271 0.000259 97.455215 15.547619 -17.843367 -3.700057 0.000303 0.003986 96.917106 13.046259 -14.599557 -2.950044 0.000334 -0.001780 99.902862 11.277775 -13.390889 -2.946621 0.000015 -0.000160 0.000001 -0.000004 -0.000001 -9.103703 -0.042763 -1.864852 95.680534 17.476702 -19.219451 -3.379297 0.000316 -0.000810 94.346878 6.969007 -7.535391 -2.889748 0.000368 0.000666 101.163735 3.678230 -4.527208 -2.638816 -0.000001 0.000940 0.000001 -0.000001 -0.000000 -8.076753 -0.486385 -3.806011 94.174539 16.555986 -17.628377 -3.600017 0.000308 -0.003499 94.867619 2.836817 -2.732077 -2.099988 0.000352 -0.005489 97.713479 -0.827657 1.173644 -2.115756 -0.000027 -0.003676 -0.000005 0.000004 -0.000005 4.570446 11.014691 -2.160851 -0.000018 0.000010 -0.000021 10.592411 -0.524475 -2.232370 72.758290 -17.404794 12.867416 27.841835 0.000060 -0.000198 105.740549 -71.218799 86.817305 28.328840 -0.000029 0.000021 0.000023 -0.000089 -0.000000 2.466255 -1.576028 2.681813 -169.658320 5.230207 68.423811 3.217822 -1.871749 1.916373 162.044134 -28.879314 12.821333 2.656110 -1.528631 1.514451 141.493639 -27.333218 47.469719 2.020895 -1.154070 1.115142 0.000001 0.000001 0.000004 9.109370 -0.517852 2.259737 87.493262 -17.683208 16.925171 3.700037 0.000169 -0.000449 84.103384 -13.128627 11.867507 2.850057 0.000168 0.000215 80.340387 -12.300307 10.393956 2.774880 -0.000015 -0.000030 -0.000000 -0.000003 -0.000000 9.533444 0.000152 -0.000091 69.685340 -19.105096 13.356671 3.700038 0.000123 -0.000371 72.764628 -15.305826 11.305760 2.950057 0.000137 -0.000184 72.550795 -17.873871 13.169353 2.952856 -0.000017 0.000059 -0.000001 0.000001 0.000001 9.104574 -0.042908 -1.865214 68.600262 -17.561661 12.031490 3.150046 0.000148 -0.000097 73.811566 -14.210540 10.697120 2.950023 0.000151 -0.000063 75.181757 -15.366076 11.859913 2.644313 0.000045 0.000059 0.000001 -0.000003 -0.000001 8.077834 -0.486777 -3.806388 62.132298 -18.380946 11.510424 3.600010 0.000118 0.014578 62.961852 -16.198470 10.293955 2.100027 0.000117 0.007566 64.764762 -15.241801 10.026796 2.125500 -0.000032 0.007515 0.000000 0.000001 0.000001 -8.207786 -6.751667 -1.599560 -0.077001 -0.000003 0.000080 -0.000002 -44.370110 0.345938 0.153719 -0.000000 -0.000000 0.000000 -44.423679 -3.043532 -0.076700 0.000000 -0.000002 -0.000006 -8.728667 10.710559 -0.000009 -0.000000 -0.000000 -0.000001 -0.000679 9.278123 0.000000 -0.000000 -0.000000 8.207792 -6.751710 -1.599556 -0.074518 -0.000003 0.000081 -0.000002 -44.370014 0.346960 0.148822 0.000002 0.000000 -0.000001 -44.423664 -3.044403 -0.074314 0.000000 -0.000002 -0.000004 -8.728671 10.710558 0.000007 -0.000000 -0.000000 0.000000 -0.000680 9.278137 -0.000000 0.000000 -0.000001 
0.000006 104.270477 1.554256 0.000010 0.000003 -0.000113 -0.000005 10.181587 0.131522 0.000001 -0.000003 0.000084 -0.000000 9.893967 -1.470711 0.000001 0.000000 -0.000000 -0.000000 9.220802 -1.370642 0.000000 -0.000000 -0.000000 0.000001 16.740433 -2.049030 0.000000 -0.000000 -0.000000 0.000000 9.617859 1.685014 0.000000 0.000000 0.000000 0.000002 22.037384 7.501101 0.000000 -0.000000 0.000000 -4.569968 11.014880 -2.160881 0.000008 0.000001 -0.000038 -10.592863 -0.524795 -2.231860 76.635487 38.700709 -31.021186 -27.841505 0.000012 0.000555 -43.271963 104.942592 54.623075 -28.328825 0.000020 0.000025 -0.000321 -0.000046 0.000008 -2.464408 -1.573744 2.682301 -50.984138 -165.609616 -18.184501 -3.215258 -1.872535 1.924635 148.600123 31.968366 13.357809 -2.654950 -1.527846 1.513053 145.925052 28.285581 -23.499385 -2.018831 -1.152014 1.108056 -0.000003 -0.000002 0.000004 -9.108363 -0.517563 2.260185 111.915750 13.973945 -20.631288 -3.700067 0.000304 0.001564 106.611521 11.969808 -15.984627 -2.850090 0.000370 -0.000224 104.574807 9.664520 -12.477729 -2.772152 -0.000001 -0.000020 -0.000001 0.000001 -0.000001 -9.532579 0.000276 0.000249 98.519215 13.928031 -16.303585 -3.700054 0.000327 0.003998 98.607769 10.514712 -12.106188 -2.950038 0.000349 -0.001770 100.118900 10.498484 -12.514746 -2.946645 0.000015 -0.000160 -0.000000 -0.000005 -0.000001 -9.103681 -0.042746 -1.864851 94.808968 15.967659 -17.299083 -3.379315 0.000343 -0.000798 97.128043 6.923044 -7.858976 -2.889752 0.000368 0.000668 104.157339 5.384969 -6.965949 -2.638814 -0.000003 0.000944 -0.000001 -0.000000 0.000002 -8.076731 -0.486379 -3.805990 92.539262 16.428852 -17.006570 -3.600025 0.000299 -0.003512 95.853953 4.734457 -4.870639 -2.099995 0.000340 -0.005459 99.616977 2.100134 -2.239713 -2.115770 -0.000061 -0.003678 -0.000001 -0.000000 -0.000002 4.570446 11.014691 -2.160851 -0.000018 0.000010 -0.000021 10.592434 -0.524469 -2.232388 72.526213 -25.753957 19.040238 27.841837 0.000053 -0.000171 108.547825 -74.611743 93.302187 28.328835 -0.000027 0.000025 0.000023 -0.000090 -0.000001 2.466254 -1.575997 2.681809 -169.470203 6.367811 69.667151 3.217838 -1.871759 1.916388 164.173678 -27.212864 19.653803 2.656127 -1.528661 1.514467 140.949081 -27.138295 54.245660 2.020895 -1.154082 1.115149 0.000001 0.000003 0.000001 9.109390 -0.517855 2.259747 88.450779 -22.324634 21.730674 3.700041 0.000169 -0.000452 83.228464 -14.076891 12.532820 2.850064 0.000174 0.000198 80.972098 -11.679717 9.978761 2.774879 -0.000046 -0.000030 -0.000001 -0.000002 0.000000 9.533451 0.000161 -0.000083 69.243242 -21.725741 15.087458 3.700033 0.000117 -0.000376 70.293718 -13.652088 9.632552 2.950064 0.000113 -0.000191 71.020423 -13.785892 9.862574 2.952859 -0.000016 0.000067 -0.000001 -0.000004 -0.000000 9.104586 -0.042899 -1.865230 68.514440 -20.918240 14.333212 3.150034 0.000154 -0.000089 73.728668 -13.340433 10.024507 2.950032 0.000132 -0.000090 75.389873 -11.728467 9.077264 2.644310 0.000030 0.000054 0.000000 -0.000001 0.000000 8.077838 -0.486760 -3.806380 61.949133 -21.512704 13.399603 3.599982 0.000111 0.014586 60.823968 -17.213752 10.479678 2.100041 0.000132 0.007561 64.419674 -13.374991 8.765833 2.125511 -0.000029 0.007515 -0.000002 0.000001 0.000000 -8.207786 -6.751667 -1.599560 -0.077001 -0.000003 0.000080 -0.000002 -44.370110 0.345938 0.153719 -0.000000 -0.000000 0.000000 -44.423679 -3.043532 -0.076700 0.000000 -0.000002 -0.000006 -8.728667 10.710559 -0.000009 -0.000000 -0.000000 -0.000001 -0.000679 9.278123 0.000000 -0.000000 -0.000000 8.207792 -6.751710 -1.599556 -0.074518 -0.000003 0.000081 -0.000002 -44.370014 0.346960 0.148822 0.000002 0.000000 -0.000001 -44.423664 -3.044403 -0.074314 0.000000 -0.000002 -0.000004 -8.728671 10.710558 0.000007 -0.000000 -0.000000 0.000000 -0.000680 9.278137 -0.000000 0.000000 -0.000001 
0.000006 104.270477 1.554256 0.000010 0.000003 -0.000113 -0.000005 10.181587 0.131522 0.000001 -0.000003 0.000084 -0.000000 9.893967 -1.470711 0.000001 0.000000 -0.000000 -0.000000 9.220802 -1.370642 0.000000 -0.000000 -0.000000 0.000001 16.740433 -2.049030 0.000000 -0.000000 -0.000000 0.000000 9.617859 1.685014 0.000000 0.000000 0.000000 0.000002 22.037384 7.501101 0.000000 -0.000000 0.000000 -4.569968 11.014880 -2.160881 0.000008 0.000001 -0.000038 -10.592850 -0.524809 -2.231829 76.557897 43.832876 -35.229487 -27.841518 0.000018 0.000558 -42.236356 103.427745 52.144803 -28.328857 0.000020 0.000028 -0.000322 -0.000046 0.000009 -2.464398 -1.573896 2.682349 -34.222502 -149.351293 16.447049 -3.215244 -1.872505 1.924616 147.470478 33.574468 29.422542 -2.654967 -1.527858 1.513064 146.477355 27.783871 -28.684032 -2.018830 -1.152015 1.108060 -0.000004 0.000004 0.000003 -9.108363 -0.517551 2.260202 113.607438 14.480570 -22.046766 -3.700046 0.000310 0.001585 111.276718 11.007918 -16.010286 -2.850062 0.000378 -0.000190 109.862316 8.224585 -11.694046 -2.772187 0.000003 -0.000017 0.000003 0.000001 -0.000003 -9.532575 0.000304 0.000257 100.423984 12.614327 -15.284394 -3.700045 0.000340 0.003992 100.306737 8.652169 -10.250156 -2.950050 0.000329 -0.001794 99.783456 8.994297 -10.660827 -2.946618 0.000001 -0.000154 0.000000 -0.000002 0.000000 -9.103684 -0.042726 -1.864843 96.962397 14.448251 -16.247266 -3.379329 0.000335 -0.000781 98.568311 7.197396 -8.378739 -2.889761 0.000380 0.000674 103.362667 5.441019 -6.938282 -2.638827 -0.000016 0.000936 0.000001 0.000006 0.000001 -8.076743 -0.486369 -3.806009 92.062870 14.817614 -15.202015 -3.600023 0.000297 -0.003496 94.946350 5.535151 -5.662219 -2.100014 0.000325 -0.005457 98.610399 3.090963 -3.348339 -2.115792 -0.000048 -0.003679 0.000002 -0.000002 -0.000006 4.570446 11.014691 -2.160851 -0.000018 0.000010 -0.000021 10.592463 -0.524474 -2.232412 71.940559 -35.628760 26.255187 27.841835 0.000049 -0.000183 110.762692 -77.002351 98.095136 28.328836 -0.000031 0.000015 0.000023 -0.000088 -0.000002 2.466266 -1.575978 2.681815 -163.733759 3.323389 60.836604 3.217874 -1.871825 1.916406 164.931078 -22.785477 36.399256 2.656096 -1.528676 1.514495 140.153569 -27.351868 55.524015 2.020876 -1.154087 1.115149 0.000002 0.000009 0.000002 9.109398 -0.517875 2.259759 92.276587 -24.490570 25.438065 3.700035 0.000146 -0.000465 86.181544 -14.961869 14.022647 2.850060 0.000179 0.000206 84.019407 -12.075331 10.882813 2.774886 -0.000031 -0.000025 -0.000002 -0.000000 0.000001 9.533463 0.000163 -0.000076 73.998386 -22.053238 16.699457 3.700058 0.000137 -0.000372 75.164818 -13.581374 10.470266 2.950056 0.000120 -0.000206 75.074236 -12.693482 9.771765 2.952864 -0.000015 0.000059 0.000002 0.000000 0.000001 9.104596 -0.042904 -1.865197 73.140534 -21.804407 16.265390 3.150036 0.000156 -0.000106 75.515610 -15.064988 11.696232 2.950034 0.000152 -0.000063 76.640528 -11.689058 9.251608 2.644309 0.000031 0.000057 0.000000 0.000000 0.000000 8.077838 -0.486773 -3.806382 65.639914 -22.360591 14.945509 3.600013 0.000120 0.014599 64.599123 -18.717590 12.249292 2.100025 0.000132 0.007542 67.523974 -14.377948 9.977920 2.125503 -0.000001 0.007519 0.000000 0.000002 -0.000000 -8.207786 -6.751667 -1.599560 -0.077001 -0.000003 0.000080 -0.000002 -44.370110 0.345938 0.153719 -0.000000 -0.000000 0.000000 -44.423679 -3.043532 -0.076700 0.000000 -0.000002 -0.000006 -8.728667 10.710559 -0.000009 -0.000000 -0.000000 -0.000001 -0.000679 9.278123 0.000000 -0.000000 -0.000000 8.207792 -6.751710 -1.599556 -0.074518 -0.000003 0.000081 -0.000002 -44.370014 0.346960 0.148822 0.000002 0.000000 -0.000001 -44.423664 -3.044403 -0.074314 0.000000 -0.000002 -0.000004 -8.728671 10.710558 0.000007 -0.000000 -0.000000 0.000000 -0.000680 9.278137 -0.000000 0.000000 -0.000001 
